<svg xmlns="http://www.w3.org/2000/svg" xmlns:xlink="http://www.w3.org/1999/xlink" width="16" height="14" viewBox="0 0 16 14"><defs><path id="eua8a" d="M1039 7727.5v9.1c0 .77-.6 1.4-1.33 1.4h-13.34c-.73 0-1.33-.63-1.33-1.4v-9.1c0-.77.6-1.4 1.33-1.4h3.34v-.7c0-.77.6-1.4 1.33-1.4h4c.74 0 1.33.63 1.33 1.4v.7h3.34c.73 0 1.33.63 1.33 1.4zm-10.67-1.4h5.34v-.7c0-.39-.3-.7-.67-.7h-4a.68.68 0 0 0-.67.7zm10 10.5v-5.1c-.2.13-.42.2-.66.2h-5.34v1.05c0 .2-.15.35-.33.35h-2a.34.34 0 0 1-.33-.35v-1.05h-5.34c-.24 0-.47-.07-.66-.2v5.1c0 .39.3.7.66.7h13.34c.36 0 .66-.31.66-.7zm-6.66-4.2v-1.4h-1.34v1.4zm6.66-4.9c0-.39-.3-.7-.66-.7h-13.34a.69.69 0 0 0-.66.7v2.8c0 .39.3.7.66.7h5.34v-.35c0-.2.15-.35.33-.35h2c.18 0 .33.16.33.35v.35h5.34c.36 0 .66-.31.66-.7z"/></defs><g><g opacity=".3" transform="translate(-1023 -7724)"><use xlink:href="#eua8a"/></g></g></svg>