<svg xmlns="http://www.w3.org/2000/svg" xmlns:xlink="http://www.w3.org/1999/xlink" width="35" height="36" viewBox="0 0 35 36"><defs><path id="c4e5a" d="M473.99 2109.14a.58.58 0 0 1-.47.22h-1.75v24.05c0 .33-.26.59-.59.59h-29.25a.59.59 0 0 1-.59-.59v-24.05h-1.75a.58.58 0 0 1-.57-.73l2.34-9.38c.06-.26.3-.45.57-.45h29.25c.27 0 .5.19.57.45l2.34 9.38c.05.18 0 .36-.1.5zm-26.21 15.76a1.47 1.47 0 0 0-2.93 0v7.93h2.93zm13.46 3.23a4.7 4.7 0 1 0-9.37 0v4.7h9.37zm7.02 4.7v-7.93a1.47 1.47 0 0 0-2.93 0v7.93zm2.34 0v-23.47H442.5v23.47h1.17v-7.93a2.64 2.64 0 0 1 5.27 0v7.93h1.75v-4.7a5.87 5.87 0 0 1 5.85-5.86 5.87 5.87 0 0 1 5.86 5.86v4.7h1.75v-7.93a2.64 2.64 0 0 1 5.27 0v7.93zm2.17-24.64l-2.04-8.21h-28.35l-2.04 8.21zm-21.48 2.93v3.52c0 .33-.26.59-.59.59h-6.43a.59.59 0 0 1-.59-.59v-3.52c0-.32.26-.58.59-.58h6.43c.33 0 .59.26.59.58zm-1.17.59h-5.27v2.35h5.27zm1.17 5.28v3.52c0 .32-.26.58-.59.58h-6.43a.59.59 0 0 1-.59-.58v-3.52c0-.33.26-.59.59-.59h6.43c.33 0 .59.26.59.59zm-1.17.59h-5.27v2.34h5.27zm19.3-6.46v3.52c0 .33-.25.59-.58.59h-6.43a.59.59 0 0 1-.59-.59v-3.52c0-.32.26-.58.59-.58h6.43c.33 0 .59.26.59.58zm-1.16 2.94v-2.35h-5.27v2.35zm1.17 2.93v3.52c0 .32-.26.58-.59.58h-6.43a.59.59 0 0 1-.59-.58v-3.52c0-.33.26-.59.59-.59h6.43c.33 0 .59.26.59.59zm-1.17 2.93v-2.34h-5.27v2.34zm-7.6-2.93v3.52c0 .32-.27.58-.6.58h-7.02a.59.59 0 0 1-.58-.58v-3.52c0-.33.26-.59.58-.59h7.03c.32 0 .58.26.58.59zm-1.18.59h-5.85v2.34h5.85zm1.17-6.46v3.52c0 .33-.26.59-.58.59h-7.03a.59.59 0 0 1-.58-.59v-3.52c0-.32.26-.58.58-.58h7.03c.32 0 .58.26.58.58zm-1.17.59h-5.85v2.35h5.85z"/></defs><g><g opacity=".46" transform="translate(-439 -2098)"><use fill="#fff" xlink:href="#c4e5a"/></g></g></svg>