<svg xmlns="http://www.w3.org/2000/svg" xmlns:xlink="http://www.w3.org/1999/xlink" width="28" height="28" viewBox="0 0 28 28"><defs><path id="nsl4a" d="M1401.94 78.28l-1.43 1.43a1.67 1.67 0 0 1-1.65.42l-.3.3a5.79 5.79 0 0 1-4.23 1.57c-1.07 0-2.23-.2-3.48-.6-3.11-.98-6.4-3.1-9.28-5.97-2.87-2.87-5-6.17-5.98-9.28-1-3.17-.72-5.83.8-7.52l.48-.49c-.17-.56-.03-1.2.42-1.65l1.43-1.43a1.66 1.66 0 0 1 2.37 0l5.49 5.49c.65.65.65 1.72 0 2.38l-1.43 1.42a1.67 1.67 0 0 1-1.65.43l-.54.53c-.38.39.2 2.77 3.08 5.65 2.88 2.87 5.26 3.46 5.64 3.08l.54-.54c-.16-.57-.02-1.2.43-1.65l1.42-1.43a1.68 1.68 0 0 1 2.38 0l5.49 5.49c.65.65.65 1.72 0 2.37zm-23.46-20.6l2.74 2.74 2.73 2.72.02.02 1.42-1.42-5.48-5.49zm19.04 21.41l-4.26-4.25-.39.39c-.4.4-.94.58-1.56.58-1.83 0-4.4-1.6-6.45-3.67-2.76-2.75-4.7-6.4-3.09-8.01l.4-.4-4.26-4.25-.16.15c-1.2 1.2-1.4 3.35-.56 6.02.9 2.85 2.89 5.9 5.57 8.59 2.68 2.68 5.74 4.66 8.6 5.57 2.66.84 4.8.64 6-.56zm3.23-2l-5.49-5.48-1.42 1.42 5.48 5.5 1.43-1.44zm-2.01-10.37a.84.84 0 0 1-1.68 0 6.73 6.73 0 0 0-6.78-6.78.84.84 0 1 1 0-1.68 8.4 8.4 0 0 1 5.98 2.48 8.4 8.4 0 0 1 2.48 5.98zm4.26 0a.84.84 0 0 1-1.68 0c0-2.95-1.15-5.72-3.23-7.8a10.97 10.97 0 0 0-7.8-3.24.84.84 0 1 1 0-1.68c3.39 0 6.58 1.32 8.99 3.72 2.4 2.4 3.72 5.6 3.72 9zm-8.52 0a.84.84 0 0 1-1.68 0c0-.69-.25-1.3-.74-1.78a2.43 2.43 0 0 0-1.78-.74.84.84 0 1 1 0-1.68c1.14 0 2.17.42 2.97 1.23.8.8 1.23 1.83 1.23 2.97z"/></defs><g><g opacity=".2" transform="translate(-1375 -54)"><use fill="#fff" xlink:href="#nsl4a"/></g></g></svg>