<svg xmlns="http://www.w3.org/2000/svg" xmlns:xlink="http://www.w3.org/1999/xlink" width="20" height="20" viewBox="0 0 20 20"><defs><path id="7jp0a" d="M1003 12241.99c0 1.36-.27 2.66-.8 3.9a9.82 9.82 0 0 1-5.32 5.31 9.83 9.83 0 0 1-7.78 0 9.85 9.85 0 0 1-5.31-5.32 9.8 9.8 0 0 1-.79-3.9c0-1.35.26-2.64.79-3.87a9.83 9.83 0 0 1 5.31-5.31 9.73 9.73 0 0 1 7.78 0 9.8 9.8 0 0 1 5.32 5.3c.53 1.24.8 2.53.8 3.89zm-1.21 0a8.8 8.8 0 0 0-16.4-4.4 8.6 8.6 0 0 0-1.18 4.4 8.89 8.89 0 0 0 2.56 6.24 8.94 8.94 0 0 0 6.21 2.57 8.78 8.78 0 0 0 8.8-8.8zm-5.11 3c.23.23.25.6 0 .85a.62.62 0 0 1-.84 0l-3.27-3.27a.57.57 0 0 1-.17-.5l-.02-.08v-5.76c0-.34.29-.6.6-.6.34 0 .64.26.64.6v5.67z"/></defs><g><g transform="translate(-983 -12232)"><use fill="#f7c73f" xlink:href="#7jp0a"/></g></g></svg>