<svg xmlns="http://www.w3.org/2000/svg" xmlns:xlink="http://www.w3.org/1999/xlink" width="17" height="23" viewBox="0 0 17 23"><defs><path id="gk8ua" d="M653 2601.38c0 4.74-3.8 8.6-8.48 8.62h-.02a8.57 8.57 0 0 1-8.49-9.11c.14-4.9 2.52-6.12 2.62-6.17a.47.47 0 0 1 .67.36c0 .03.44 2.95 2.37 3.37 0-1.26.06-3.16.48-4.86.61-2.43 2.35-4.98 4.44-6.5.14-.1.33-.12.49-.04.15.09.25.25.25.43 0 2.24 1.11 3.75 2.4 5.5 1.39 1.9 2.96 4.06 3.22 7.49 0 0 .05.67.05.9zm-5.67 4.6v-.25a5.5 5.5 0 0 0-1.22-3c-.38-.55-.77-1.11-.97-1.8-.45.53-.81 1.2-.96 1.83-.17.7-.18 1.5-.18 2.18 0 .26-.21.48-.47.48-.8 0-1.29-.55-1.56-1.15-.15.33-.28.81-.3 1.52v.19c0 1.69 1.27 3.06 2.83 3.06s2.83-1.37 2.83-3.06z"/></defs><g><g opacity=".36" transform="translate(-636 -2587)"><use xlink:href="#gk8ua"/></g></g></svg>