<?xml version="1.0" encoding="UTF-8" standalone="no"?>
<svg
   xmlns:dc="http://purl.org/dc/elements/1.1/"
   xmlns:cc="http://creativecommons.org/ns#"
   xmlns:rdf="http://www.w3.org/1999/02/22-rdf-syntax-ns#"
   xmlns:svg="http://www.w3.org/2000/svg"
   xmlns="http://www.w3.org/2000/svg"
   xmlns:xlink="http://www.w3.org/1999/xlink"
   xmlns:sodipodi="http://sodipodi.sourceforge.net/DTD/sodipodi-0.dtd"
   xmlns:inkscape="http://www.inkscape.org/namespaces/inkscape"
   width="35.259998"
   height="18.272499"
   viewBox="0 0 35.259998 18.272499"
   version="1.1"
   id="svg11"
   sodipodi:docname="left.svg"
   inkscape:version="0.92.3 (2405546, 2018-03-11)">
  <metadata
     id="metadata15">
    <rdf:RDF>
      <cc:Work
         rdf:about="">
        <dc:format>image/svg+xml</dc:format>
        <dc:type
           rdf:resource="http://purl.org/dc/dcmitype/StillImage" />
        <dc:title></dc:title>
      </cc:Work>
    </rdf:RDF>
  </metadata>
  <sodipodi:namedview
     pagecolor="#ffffff"
     bordercolor="#666666"
     borderopacity="1"
     objecttolerance="10"
     gridtolerance="10"
     guidetolerance="10"
     inkscape:pageopacity="0"
     inkscape:pageshadow="2"
     inkscape:window-width="1920"
     inkscape:window-height="1026"
     id="namedview13"
     showgrid="false"
     fit-margin-top="0"
     fit-margin-left="0"
     fit-margin-right="0"
     fit-margin-bottom="0"
     inkscape:zoom="6.5555556"
     inkscape:cx="17.723877"
     inkscape:cy="8.76625"
     inkscape:window-x="0"
     inkscape:window-y="26"
     inkscape:window-maximized="1"
     inkscape:current-layer="svg11" />
  <defs
     id="defs3">
    <path
       id="tbl1a"
       d="m 1280.69,9630.3 c 0,1.09 -0.82,1.96 -1.83,1.96 -1.01,0 -1.83,-0.87 -1.83,-1.95 v -26.62 l -4.19,4.5 c -0.71,0.76 -1.87,0.76 -2.58,0 -0.71,-0.77 -0.71,-2.01 0,-2.78 l 7.24,-7.76 c 0.33,-0.4 0.82,-0.65 1.36,-0.65 0.51,0 0.98,0.23 1.3,0.6 l 7.3,7.81 c 0.72,0.77 0.72,2 0,2.77 -0.35,0.38 -0.82,0.57 -1.29,0.57 -0.47,0 -0.94,-0.19 -1.3,-0.57 l -4.18,-4.5 z"
       inkscape:connector-curvature="0" />
  </defs>
  <g
     id="g9"
     transform="rotate(-90,9.5,9.5)">
    <g
       transform="translate(-1269,-9597)"
       id="g7">
      <use
         xlink:href="#tbl1a"
         id="use5"
         style="fill:#ffffff"
         x="0"
         y="0"
         width="100%"
         height="100%" />
    </g>
  </g>
</svg>
