<svg xmlns="http://www.w3.org/2000/svg" xmlns:xlink="http://www.w3.org/1999/xlink" width="28" height="26" viewBox="0 0 28 26"><defs><path id="ls3sa" d="M1042 78.25c0 .4-.32.71-.72.71l-26.54.04a.72.72 0 0 1-.72-.71l-.02-15.45v-.01a.7.7 0 0 1 .31-.58l4.03-2.77v-2.93c0-.4.32-.71.71-.71h4.6l3.94-2.71a.72.72 0 0 1 .82 0l3.92 2.7h4.62c.4 0 .71.33.71.72v2.97l4.01 2.77a.71.71 0 0 1 .3.54zm-4.34-13.83l2.3-1.58-2.3-1.58zm-11.5-8.58h3.66l-1.82-1.26zm-6.39 9.6l5.53 3.8 2.27-1.75a.72.72 0 0 1 .88 0l2.25 1.74 5.53-3.82v-8.15h-16.46zm-3.8-2.6l2.37 1.62v-3.24zm-.52 14l8.66-6.68-8.67-5.96zm23.7.7L1028 68.96l-11.17 8.61zm1.41-.7l-.01-12.68-8.66 5.98zm-6.99-16.01c0 .39-.32.71-.72.71h-9.7a.72.72 0 0 1-.72-.71c0-.4.32-.72.72-.72h9.7c.4 0 .72.32.72.72zm0 3.7c0 .4-.32.72-.72.72h-9.7a.72.72 0 0 1-.72-.72c0-.4.32-.71.72-.71h9.7c.4 0 .72.32.72.71z"/></defs><g><g opacity=".2" transform="translate(-1014 -53)"><use fill="#fff" xlink:href="#ls3sa"/></g></g></svg>