<svg xmlns="http://www.w3.org/2000/svg" xmlns:xlink="http://www.w3.org/1999/xlink" width="21" height="14" viewBox="0 0 21 14"><defs><path id="9h75a" d="M452 1305.44v13.12c0 .24-.21.44-.48.44h-20.04c-.27 0-.48-.2-.48-.44v-13.12c0-.24.21-.44.48-.44h20.04c.27 0 .48.2.48.44zm-20.05 11.63l5.92-5.42-5.92-5.42zm.2 1.05h18.7l-6.4-5.85-2.61 2.4a.51.51 0 0 1-.68 0l-2.62-2.4zm18.9-1.05v-10.84l-5.92 5.42zm-9.55-3.33l8.58-7.87h-17.16z"/></defs><g><g opacity=".25" transform="translate(-431 -1305)"><use xlink:href="#9h75a"/></g></g></svg>