<svg xmlns="http://www.w3.org/2000/svg" xmlns:xlink="http://www.w3.org/1999/xlink" width="18" height="23" viewBox="0 0 18 23"><defs><path id="wsdda" d="M1001 12279.22a9.7 9.7 0 0 1-.82 3.86c-.97 2.34-3.1 5.93-7.78 9.78a.63.63 0 0 1-.8 0c-4.68-3.85-6.8-7.44-7.78-9.78a9.23 9.23 0 0 1-.82-3.86 9.12 9.12 0 0 1 9-9.22c4.95 0 9 4.14 9 9.22zm-1.28 0a7.83 7.83 0 0 0-7.72-7.92 7.83 7.83 0 0 0-7.59 9.42v.03l.05.21v.01c.12.54.3 1.07.52 1.57l.01.02c.88 2.14 2.8 5.4 7 8.95 4.2-3.55 6.13-6.81 7.01-8.95l.01-.02c.23-.5.4-1.03.52-1.57v-.01l.04-.2v-.04c.1-.49.15-1 .15-1.5zm-2.01.1a5.8 5.8 0 0 1-5.71 5.85 5.8 5.8 0 0 1-5.72-5.85 5.8 5.8 0 0 1 5.72-5.85 5.8 5.8 0 0 1 5.7 5.85zm-1.27 0c0-2.5-2-4.55-4.44-4.55a4.5 4.5 0 0 0-4.45 4.55 4.5 4.5 0 0 0 4.45 4.55 4.5 4.5 0 0 0 4.44-4.55z"/></defs><g><g transform="translate(-983 -12270)"><use fill="#f7c73f" xlink:href="#wsdda"/></g></g></svg>