<svg xmlns="http://www.w3.org/2000/svg" xmlns:xlink="http://www.w3.org/1999/xlink" width="22" height="22" viewBox="0 0 22 22"><defs><path id="n11xa" d="M693.95 12245.19c.47.46.72 1.01.72 1.59 0 .57-.25 1.13-.7 1.6-.2.22-.41.41-.61.6-.3.29-.57.55-.82.85l-.01.02a3.5 3.5 0 0 1-2.98 1.14c-1.6-.1-3.02-.7-4.1-1.2a21.86 21.86 0 0 1-7.28-5.7 19.99 19.99 0 0 1-3.56-5.93c-.3-.82-.7-2.09-.6-3.44a3.4 3.4 0 0 1 1.02-2.16l1.58-1.6a2.28 2.28 0 0 1 1.59-.69c.57 0 1.1.24 1.56.69.3.27.6.57.87.86l.43.44 1.27 1.27c.98.97.98 2.24 0 3.21l-.39.4c-.34.34-.7.7-1.08 1.05.29.63.68 1.25 1.26 1.98 1.2 1.47 2.45 2.61 3.83 3.48.13.09.29.17.46.25l.35.19 1.47-1.47a2.24 2.24 0 0 1 1.6-.71c.57 0 1.12.25 1.57.72zm-.9.87l-2.56-2.55v-.01c-.15-.16-.39-.34-.67-.34-.3 0-.55.19-.7.35l-1.6 1.58c-.08.08-.32.32-.7.32a1 1 0 0 1-.46-.11l-.06-.03c-.14-.09-.3-.17-.46-.25l-.57-.31a17.04 17.04 0 0 1-4.13-3.75c-.71-.9-1.18-1.66-1.5-2.45l-.02-.05c-.09-.26-.16-.65.24-1.05l.02-.02c.4-.37.78-.74 1.17-1.14l.4-.4c.5-.49.5-.94 0-1.44l-1.27-1.26-.44-.45-.84-.84h-.01a1 1 0 0 0-.68-.33c-.24 0-.48.11-.7.33l-1.6 1.58c-.38.39-.59.83-.64 1.38-.07.85.1 1.75.53 2.9.7 1.9 1.76 3.66 3.34 5.57a20.65 20.65 0 0 0 6.87 5.37c.96.46 2.24 1 3.62 1.09h.22c.72 0 1.28-.24 1.75-.74.28-.34.6-.64.9-.93l.56-.56c.48-.5.48-.98 0-1.46zm-7.67-12.55a.63.63 0 0 1 .73-.51 7.17 7.17 0 0 1 5.9 5.89.63.63 0 0 1-.52.72h-.1a.62.62 0 0 1-.63-.51 5.92 5.92 0 0 0-4.87-4.87.62.62 0 0 1-.5-.72zm10.1 5.91h-.1a.62.62 0 0 1-.63-.51 10.58 10.58 0 0 0-8.68-8.66.63.63 0 0 1 .2-1.24c2.44.41 4.65 1.56 6.4 3.31a11.78 11.78 0 0 1 3.32 6.38.62.62 0 0 1-.51.72z"/></defs><g><g transform="translate(-674 -12229)"><use fill="#f7c73f" xlink:href="#n11xa"/></g></g></svg>