<svg xmlns="http://www.w3.org/2000/svg" xmlns:xlink="http://www.w3.org/1999/xlink" width="110" height="111" viewBox="0 0 110 111"><defs><path id="mkbea" d="M777.5 9181a39.5 39.5 0 1 1 0 79 39.5 39.5 0 0 1 0-79z"/><path id="mkbeb" d="M735 9263v-85h85v85zm3-42.5a39.5 39.5 0 1 0 79 0 39.5 39.5 0 0 0-79 0z"/><path id="mkbeg" d="M775 9214l11 7-11 7z"/><mask id="mkbed" width="2" height="2" x="-1" y="-1"><path fill="#fff" d="M738 9181h79v79h-79z"/><use xlink:href="#mkbea"/></mask><filter id="mkbec" width="135" height="135" x="710" y="9153" filterUnits="userSpaceOnUse"><feOffset in="SourceGraphic" result="FeOffset1023Out"/><feGaussianBlur in="FeOffset1023Out" result="FeGaussianBlur1024Out" stdDeviation="7.2 7.2"/></filter><clipPath id="mkbee"><use fill="#fff" xlink:href="#mkbeb"/></clipPath><clipPath id="mkbef"><use fill="#fff" xlink:href="#mkbea"/></clipPath></defs><g><g transform="translate(-723 -9165)"><g filter="url(#mkbec)"><use fill="none" stroke-width="0" mask="url(&quot;#mkbed&quot;)" xlink:href="#mkbea"/><use fill="#f7c73f" xlink:href="#mkbea"/></g><use fill="#f7c73f" xlink:href="#mkbea"/><use fill="#fff" fill-opacity="0" stroke="#f7c73f" stroke-linecap="round" stroke-linejoin="round" stroke-miterlimit="50" stroke-opacity=".64" stroke-width="6" clip-path="url(&quot;#mkbee&quot;)" xlink:href="#mkbea"/><use fill="#fff" fill-opacity="0" stroke="#e7e7e7" stroke-linecap="round" stroke-linejoin="round" stroke-miterlimit="50" stroke-opacity=".64" stroke-width="2" clip-path="url(&quot;#mkbef&quot;)" xlink:href="#mkbea"/></g><g transform="translate(-723 -9165)"><use fill="#fff" xlink:href="#mkbeg"/></g></g></svg>