<svg xmlns="http://www.w3.org/2000/svg" xmlns:xlink="http://www.w3.org/1999/xlink" width="17" height="22" viewBox="0 0 17 22"><defs><path id="le2ua" d="M1296 7739.4c-.03.2-.2.35-.4.32l-2.53-.34-.63 2.35a.36.36 0 0 1-.34.27.34.34 0 0 1-.28-.15l-2.26-3.11c-.55.58-1.28.93-2.06.98-.77-.05-1.5-.4-2.06-.98l-2.26 3.11a.35.35 0 0 1-.35.14.36.36 0 0 1-.27-.26l-.63-2.35-2.53.34a.34.34 0 0 1-.26-.08.4.4 0 0 1-.06-.53l2.15-2.96c-.7-.23-1.3-.7-1.7-1.36-.51-.93-.28-2.08-.06-3.19a9.3 9.3 0 0 0 .24-1.74 9.29 9.29 0 0 0-.24-1.74c-.22-1.1-.45-2.25.06-3.2.52-.96 1.58-1.32 2.6-1.67.51-.15 1-.36 1.47-.62.43-.3.83-.64 1.18-1.02.76-.76 1.62-1.61 2.72-1.61s1.96.85 2.72 1.61c.35.38.75.73 1.18 1.02.46.26.96.47 1.47.62 1.02.35 2.08.7 2.6 1.68.51.94.28 2.08.06 3.2a9.3 9.3 0 0 0-.24 1.73c.03.59.1 1.17.24 1.74.22 1.1.45 2.25-.06 3.2-.4.64-1 1.12-1.7 1.35l2.15 2.96a.4.4 0 0 1 .08.28zm-11.1-1.16l-.12-.13a7.3 7.3 0 0 0-1.18-1.02 7.3 7.3 0 0 0-1.47-.62l-.2-.06-1.77 2.44 1.98-.26c.18-.02.34.1.39.27l.52 1.94zm4.84-.68c.4-.43.83-.8 1.3-1.13a7.87 7.87 0 0 1 1.61-.68c.94-.32 1.82-.62 2.21-1.34.37-.68.18-1.64-.02-2.65a9.92 9.92 0 0 1-.26-1.9 9.9 9.9 0 0 1 .26-1.9c.2-1 .4-1.96.02-2.65-.39-.72-1.27-1.02-2.2-1.34-.56-.16-1.1-.4-1.62-.68a7.9 7.9 0 0 1-1.3-1.12c-.73-.73-1.42-1.41-2.24-1.41-.82 0-1.5.68-2.23 1.4-.4.43-.84.8-1.31 1.13-.51.29-1.05.52-1.61.68-.94.32-1.82.62-2.21 1.34-.37.69-.18 1.64.02 2.66.15.62.23 1.25.26 1.9a9.91 9.91 0 0 1-.26 1.89c-.2 1.01-.4 1.97-.02 2.65.39.72 1.27 1.02 2.2 1.34.57.17 1.1.4 1.62.68.47.33.9.7 1.3 1.13.73.72 1.42 1.4 2.24 1.4.82 0 1.5-.68 2.24-1.4zm5.1 1.3l-1.78-2.45-.2.06c-.5.15-1 .36-1.46.62-.43.3-.83.64-1.18 1.02l-.13.13 1.87 2.56.51-1.94c.05-.18.21-.3.39-.27zm-.97-9c0 3.77-2.85 6.83-6.37 6.83s-6.37-3.06-6.37-6.83 2.85-6.83 6.37-6.83 6.37 3.06 6.37 6.83zm-.7 0c0-3.35-2.54-6.07-5.67-6.07s-5.67 2.72-5.67 6.07 2.54 6.07 5.67 6.07 5.66-2.72 5.67-6.07zm-1.74-.52l-1.75 1.36.67 2.21c.1.32-.01.66-.26.85-.25.2-.59.2-.83 0l-1.76-1.36-1.76 1.36a.67.67 0 0 1-.63.11.77.77 0 0 1-.46-.96l.67-2.2-1.75-1.37a.78.78 0 0 1-.3-.62c0-.42.33-.75.72-.75h2.17l.67-2.21c.07-.23.24-.41.45-.49.37-.13.77.09.9.49l.67 2.2h2.16a.7.7 0 0 1 .58.32.8.8 0 0 1-.16 1.06zm-.42-.62h-2.42a.36.36 0 0 1-.34-.26l-.75-2.47-.75 2.47a.36.36 0 0 1-.34.26H1284l1.96 1.53c.12.1.18.27.13.43l-.75 2.47 1.96-1.53c.13-.1.3-.1.42 0l1.96 1.53-.75-2.47a.4.4 0 0 1 .13-.43z"/></defs><g><g opacity=".28" transform="translate(-1279 -7720)"><use xlink:href="#le2ua"/></g></g></svg>