<?xml version="1.0" encoding="UTF-8" standalone="no"?>
<svg
   xmlns:dc="http://purl.org/dc/elements/1.1/"
   xmlns:cc="http://creativecommons.org/ns#"
   xmlns:rdf="http://www.w3.org/1999/02/22-rdf-syntax-ns#"
   xmlns:svg="http://www.w3.org/2000/svg"
   xmlns="http://www.w3.org/2000/svg"
   xmlns:xlink="http://www.w3.org/1999/xlink"
   xmlns:sodipodi="http://sodipodi.sourceforge.net/DTD/sodipodi-0.dtd"
   xmlns:inkscape="http://www.inkscape.org/namespaces/inkscape"
   width="20"
   height="19"
   viewBox="0 0 20 19"
   version="1.1"
   id="svg19"
   sodipodi:docname="quest.svg"
   inkscape:version="0.92.3 (2405546, 2018-03-11)">
  <metadata
     id="metadata23">
    <rdf:RDF>
      <cc:Work
         rdf:about="">
        <dc:format>image/svg+xml</dc:format>
        <dc:type
           rdf:resource="http://purl.org/dc/dcmitype/StillImage" />
      </cc:Work>
    </rdf:RDF>
  </metadata>
  <sodipodi:namedview
     pagecolor="#ffffff"
     bordercolor="#666666"
     borderopacity="1"
     objecttolerance="10"
     gridtolerance="10"
     guidetolerance="10"
     inkscape:pageopacity="0"
     inkscape:pageshadow="2"
     inkscape:window-width="1920"
     inkscape:window-height="1026"
     id="namedview21"
     showgrid="false"
     inkscape:zoom="35.132042"
     inkscape:cx="8.7087836"
     inkscape:cy="10.998802"
     inkscape:window-x="0"
     inkscape:window-y="26"
     inkscape:window-maximized="1"
     inkscape:current-layer="svg19" />
  <defs
     id="defs7">
    <path
       id="qs9ia"
       d="M761.27 1937.73a9.13 9.13 0 0 0-12.32 3.9 9.36 9.36 0 0 0-.32 8.3l-2.1 3.88c-.15.3-.13.67.07.93s.53.37.85.28l4.5-1.27.54.32a9.13 9.13 0 0 0 12.32-3.91 9.13 9.13 0 0 0-3.54-12.43z" />
    <path
       id="qs9ic"
       d="M755.43 1947.29c0-1.86 2.13-2.19 2.13-3.34 0-.46-.45-.8-.96-.8-.5 0-.94.27-1.3.58l-1.3-1.6a3.92 3.92 0 0 1 2.84-1.14c1.52 0 3.16.92 3.16 2.69 0 2.25-2.32 2.58-2.32 3.8v.5h-2.25zm.06 1.66h2.14v2.05h-2.14z" />
    <clipPath
       id="qs9ib">
      <use
         fill="#fff"
         xlink:href="#qs9ia"
         id="use4" />
    </clipPath>
  </defs>
  <path
     style="color:#000000;font-style:normal;font-variant:normal;font-weight:normal;font-stretch:normal;font-size:medium;line-height:normal;font-family:sans-serif;font-variant-ligatures:normal;font-variant-position:normal;font-variant-caps:normal;font-variant-numeric:normal;font-variant-alternates:normal;font-feature-settings:normal;text-indent:0;text-align:start;text-decoration:none;text-decoration-line:none;text-decoration-style:solid;text-decoration-color:#000000;letter-spacing:normal;word-spacing:normal;text-transform:none;writing-mode:lr-tb;direction:ltr;text-orientation:mixed;dominant-baseline:auto;baseline-shift:baseline;text-anchor:start;white-space:normal;shape-padding:0;clip-rule:nonzero;display:inline;overflow:visible;visibility:visible;opacity:1;isolation:auto;mix-blend-mode:normal;color-interpolation:sRGB;color-interpolation-filters:linearRGB;solid-color:#000000;solid-opacity:1;vector-effect:none;fill:#000000;fill-opacity:1;fill-rule:nonzero;stroke:none;stroke-width:1.25763512;stroke-linecap:round;stroke-linejoin:round;stroke-miterlimit:4;stroke-dasharray:none;stroke-dashoffset:0;stroke-opacity:1;color-rendering:auto;image-rendering:auto;shape-rendering:auto;text-rendering:auto;enable-background:accumulate"
     d="m 10.880859,0.63281223 c -5.0178886,0 -9.0878902,4.15938857 -9.0878902,9.25781247 0,1.2746063 0.186499,2.4475743 0.8370312,4.0393753 -0.6872779,1.250232 -1.2855565,2.338751 -1.9314591,3.481003 -0.2222356,0.393015 -0.3390342,0.874563 -5.891e-4,1.354489 0.325792,0.461983 1.0192192,0.226311 1.504094,0.09492 1.38015,-0.373996 2.3845809,-0.674656 3.7479542,-1.11041 1.1071969,0.958984 3.676387,1.398438 4.930859,1.398438 5.017889,0 9.085938,-4.159389 9.085938,-9.2578133 0,-5.0984239 -4.068049,-9.25781247 -9.085938,-9.25781247 z m -0.02846,1.08702817 c 4.324522,0 8.084301,3.7670807 8.084301,8.1992483 0,4.4321683 -3.674387,8.1992483 -7.998909,8.1992483 -1.08113,0 -2.782925,-0.163739 -4.8695559,-1.452183 -1.716598,0.476327 -2.7450702,0.76689 -4.5098245,1.305978 0.7970097,-1.510323 1.5616341,-2.94313 2.2500086,-4.136229 -0.7632918,-1.733915 -0.8430261,-2.808772 -0.8430261,-3.9168143 0,-4.4321676 3.5624842,-8.1992483 7.8870059,-8.1992483 z"
     id="path830"
     inkscape:connector-curvature="0"
     sodipodi:nodetypes="sscssscsssssscccss" />
  <path
     style="fill:#000000;fill-opacity:1;stroke:none;stroke-width:1px;stroke-linecap:butt;stroke-linejoin:miter;stroke-opacity:1"
     d="m 8,6.13 c 0,0 1.3557549,-1.1482833 3.044049,-1.1627738 1.460582,0.042438 2.631835,0.7058268 2.931797,2.590228 C 13.93424,10.381169 11.48628,9.9308348 11.68,11.98 c -1.8556912,0.02822 -2.25,0 -2.25,0 0,0 -0.2881388,-0.718739 0.247775,-1.746926 C 10.157552,9.3125892 11.928192,8.6859834 11.527938,7.7282385 10.965416,6.3822095 9.3,7.73 9.3,7.73 L 8,6.13"
     id="path834"
     inkscape:connector-curvature="0"
     sodipodi:nodetypes="cccccsscc" />
  <path
     style="fill:#000000;fill-opacity:1;stroke:none;stroke-width:1.20000005;stroke-linecap:round;stroke-linejoin:round;stroke-miterlimit:4;stroke-dasharray:none;stroke-opacity:1"
     d="M 9.4899998,12.95 H 11.63 V 15 H 9.4899998 Z"
     id="rect836" />
</svg>
