<?xml version="1.0" encoding="UTF-8" standalone="no"?>
<svg
   xmlns:dc="http://purl.org/dc/elements/1.1/"
   xmlns:cc="http://creativecommons.org/ns#"
   xmlns:rdf="http://www.w3.org/1999/02/22-rdf-syntax-ns#"
   xmlns:svg="http://www.w3.org/2000/svg"
   xmlns="http://www.w3.org/2000/svg"
   xmlns:xlink="http://www.w3.org/1999/xlink"
   xmlns:sodipodi="http://sodipodi.sourceforge.net/DTD/sodipodi-0.dtd"
   xmlns:inkscape="http://www.inkscape.org/namespaces/inkscape"
   width="35.27"
   height="18.245001"
   viewBox="0 0 35.27 18.245001"
   version="1.1"
   id="svg11"
   sodipodi:docname="right.svg"
   inkscape:version="0.92.3 (2405546, 2018-03-11)">
  <metadata
     id="metadata15">
    <rdf:RDF>
      <cc:Work
         rdf:about="">
        <dc:format>image/svg+xml</dc:format>
        <dc:type
           rdf:resource="http://purl.org/dc/dcmitype/StillImage" />
        <dc:title></dc:title>
      </cc:Work>
    </rdf:RDF>
  </metadata>
  <sodipodi:namedview
     pagecolor="#ffffff"
     bordercolor="#666666"
     borderopacity="1"
     objecttolerance="10"
     gridtolerance="10"
     guidetolerance="10"
     inkscape:pageopacity="0"
     inkscape:pageshadow="2"
     inkscape:window-width="1920"
     inkscape:window-height="1026"
     id="namedview13"
     showgrid="false"
     fit-margin-top="0"
     fit-margin-left="0"
     fit-margin-right="0"
     fit-margin-bottom="0"
     inkscape:zoom="6.5555556"
     inkscape:cx="18.492627"
     inkscape:cy="9.4675"
     inkscape:window-x="0"
     inkscape:window-y="26"
     inkscape:window-maximized="1"
     inkscape:current-layer="svg11" />
  <defs
     id="defs3">
    <path
       id="w3mka"
       d="m 1276.28,9656.67 c 0,-1.08 0.82,-1.96 1.82,-1.96 1.01,0 1.83,0.88 1.83,1.96 v 26.62 l 4.18,-4.5 a 1.74,1.74 0 0 1 2.58,0 c 0.71,0.77 0.71,2 0,2.77 l -7.23,7.77 c -0.33,0.4 -0.82,0.65 -1.36,0.65 -0.5,0 -0.97,-0.23 -1.3,-0.6 l -7.29,-7.82 c -0.71,-0.76 -0.71,-2 0,-2.77 0.36,-0.38 0.83,-0.57 1.3,-0.57 0.46,0 0.93,0.2 1.28,0.57 l 4.19,4.5 z"
       inkscape:connector-curvature="0" />
  </defs>
  <g
     id="g9"
     transform="rotate(-90,8.75625,9.46625)">
    <g
       transform="translate(-1269,-9654)"
       id="g7">
      <use
         xlink:href="#w3mka"
         id="use5"
         style="fill:#ffffff"
         x="0"
         y="0"
         width="100%"
         height="100%" />
    </g>
  </g>
</svg>
