<svg xmlns="http://www.w3.org/2000/svg" xmlns:xlink="http://www.w3.org/1999/xlink" width="36" height="39" viewBox="0 0 36 39"><defs><path id="x9n1a" d="M990.02 2113.2c0 .36-.28.65-.64.65h-3.22a.65.65 0 0 1-.64-.65c0-.36.28-.65.64-.65h3.22c.36 0 .64.3.64.65zm0 2.6c0 .36-.28.65-.64.65h-3.22a.65.65 0 0 1-.64-.65c0-.36.28-.65.64-.65h3.22c.36 0 .64.29.64.65zm0 2.6c0 .36-.28.65-.64.65h-3.22a.65.65 0 0 1-.64-.65c0-.36.28-.65.64-.65h3.22c.36 0 .64.3.64.65zm0 2.6c0 .36-.28.65-.64.65h-3.22a.65.65 0 0 1-.64-.65c0-.36.28-.65.64-.65h3.22c.36 0 .64.3.64.65zm0 2.6c0 .36-.28.65-.64.65h-3.22a.65.65 0 0 1-.64-.65c0-.36.28-.65.64-.65h3.22c.36 0 .64.3.64.65zm0 2.6c0 .36-.28.65-.64.65h-3.22a.65.65 0 0 1-.64-.65c0-.36.28-.65.64-.65h3.22c.36 0 .64.3.64.65zm0 2.6c0 .36-.28.65-.64.65h-3.22a.65.65 0 0 1-.64-.65c0-.36.28-.65.64-.65h3.22c.36 0 .64.3.64.65zm0 2.6c0 .36-.28.65-.64.65h-3.22a.65.65 0 0 1-.64-.65c0-.36.28-.65.64-.65h3.22c.36 0 .64.3.64.65zm28.98-20.8v22.75c0 .36-.29.65-.64.65h-34.77a.65.65 0 0 1-.65-.65v-22.75c0-.36.29-.65.65-.65h7.72v-6.5c0-.36.29-.65.65-.65h3.22v-3.25c0-.36.28-.65.64-.65h4.5v-3.9h1.3v3.9h4.5c.36 0 .65.3.65.65v3.25h3.22c.35 0 .64.3.64.65v6.5h7.73c.35 0 .64.3.64.65zm-27.69.65h-7.08v21.45h7.08zm5.15-8.45h9.02v-2.6h-9.02zm12.88 7.8v-6.5H992.6v28.6h16.74v-22.1zm8.37.65h-7.08v21.45h7.08zm-1.29 2.6v16.91c0 .36-.28.65-.64.65a.65.65 0 0 1-.64-.65v-16.9c0-.37.28-.66.64-.66s.64.3.64.65zm-3.22 0v16.91c0 .36-.28.65-.64.65a.65.65 0 0 1-.64-.65v-16.9c0-.37.29-.66.64-.66.36 0 .64.3.64.65zm-13.52 13v3.9c0 .36-.29.65-.64.65h-4.5a.65.65 0 0 1-.65-.65v-3.9c0-.36.29-.65.64-.65h4.5c.36 0 .65.3.65.65zm-1.29.65h-3.21v2.6h3.21zm1.3-7.15v3.9c0 .36-.3.65-.65.65h-4.5a.65.65 0 0 1-.65-.65v-3.9c0-.36.29-.65.64-.65h4.5c.36 0 .65.29.65.65zm-1.3.65h-3.21v2.6h3.21zm1.3-7.15v3.9c0 .36-.3.65-.65.65h-4.5a.65.65 0 0 1-.65-.65v-3.9c0-.36.29-.65.64-.65h4.5c.36 0 .65.3.65.65zm-1.3.65h-3.21v2.6h3.21zm1.3-7.15v3.9c0 .36-.3.65-.65.65h-4.5a.65.65 0 0 1-.65-.65v-3.9c0-.36.29-.65.64-.65h4.5c.36 0 .65.3.65.65zm-1.3.65h-3.21v2.6h3.21zm9.66 18.85v3.9c0 .36-.28.65-.64.65h-4.5a.65.65 0 0 1-.65-.65v-3.9c0-.36.29-.65.64-.65h4.51c.36 0 .64.3.64.65zm-1.28.65h-3.22v2.6h3.22zm1.28-7.15v3.9c0 .36-.28.65-.64.65h-4.5a.65.65 0 0 1-.65-.65v-3.9c0-.36.29-.65.64-.65h4.51c.36 0 .64.29.64.65zm-1.28.65h-3.22v2.6h3.22zm1.28-7.15v3.9c0 .36-.28.65-.64.65h-4.5a.65.65 0 0 1-.65-.65v-3.9c0-.36.29-.65.64-.65h4.51c.36 0 .64.3.64.65zm-1.28.65h-3.22v2.6h3.22zm1.28-7.15v3.9c0 .36-.28.65-.64.65h-4.5a.65.65 0 0 1-.65-.65v-3.9c0-.36.29-.65.64-.65h4.51c.36 0 .64.3.64.65zm-1.28.65h-3.22v2.6h3.22z"/></defs><g><g opacity=".5" transform="translate(-983 -2095)"><use fill="#2b3a40" xlink:href="#x9n1a"/></g></g></svg>