<svg xmlns="http://www.w3.org/2000/svg" xmlns:xlink="http://www.w3.org/1999/xlink" width="18" height="18" viewBox="0 0 18 18"><defs><path id="dzn9a" d="M1462.84 3671.84c-.1.1-.24.16-.38.16a.54.54 0 0 1-.37-.16l-4.38-4.37a7.69 7.69 0 1 1-5.03-13.47 7.68 7.68 0 0 1 5.79 12.7l4.37 4.38c.21.2.21.55 0 .76zm-10.17-3.56a6.6 6.6 0 0 0 0-13.2 6.6 6.6 0 0 0 0 13.2z"/><path id="dzn9b" d="M1452.07 3658v3.1H1449v.78h3.06v3.11h.86v-3.11h3.06v-.79h-3.06v-3.08z"/></defs><g><g transform="translate(-1445 -3654)"><use fill="#2b3a40" xlink:href="#dzn9a"/></g><g transform="translate(-1445 -3654)"><use fill="#36444a" xlink:href="#dzn9b"/></g></g></svg>